<svg id="Capa_1" enable-background="new 0 0 512 512" height="512" viewBox="0 0 512 512" width="512" xmlns="http://www.w3.org/2000/svg"><g><path d="m152 .007v109.993h-75c-8.284 0-15-6.716-15-15v-54.994c0-22.091 17.909-40 40-40z" fill="#ff8e00"/><path d="m102 0h355c30.376 0 55 24.624 55 55v442c0 8.284-6.716 15-15 15h-340c-8.284 0-15-6.716-15-15v-457c0-22.091-17.909-40-40-40z" fill="#ffe16e"/><path d="m457 0h-130v512h170c8.284 0 15-6.716 15-15v-442c0-30.376-24.624-55-55-55z" fill="#ff8e00"/><path d="m437 181h-220c-8.284 0-15-6.716-15-15s6.716-15 15-15h220c8.284 0 15 6.716 15 15s-6.716 15-15 15z" fill="#00429b"/><path d="m437 121h-220c-8.284 0-15-6.716-15-15s6.716-15 15-15h220c8.284 0 15 6.716 15 15s-6.716 15-15 15z" fill="#00429b"/><path d="m437 91h-110v30h110c8.284 0 15-6.716 15-15s-6.716-15-15-15z" fill="#00337a"/><path d="m437 151h-110v30h110c8.284 0 15-6.716 15-15s-6.716-15-15-15z" fill="#00337a"/><g><path d="m60 366v-40c0-8.284 6.716-15 15-15h217v70h-217c-8.284 0-15-6.716-15-15z" fill="#7d4a3b"/><path d="m60 346v20c0 8.284 6.716 15 15 15h217v-35z" fill="#5c3629"/><path d="m75 381h-40c-19.33 0-35-15.67-35-35 0-19.33 15.67-35 35-35h40z" fill="#f6f9f9"/><path d="m0 346c0 19.33 15.67 35 35 35h40v-35z" fill="#dadfe7"/><path d="m262 436v-180h130v180z" fill="#9d5e4a"/><path d="m397 271h-140c-8.284 0-15-6.716-15-15s6.716-15 15-15h140c8.284 0 15 6.716 15 15s-6.716 15-15 15z" fill="#7d4a3b"/><path d="m262 346h130v90h-130z" fill="#7d4a3b"/><path d="m397 451h-140c-8.284 0-15-6.716-15-15s6.716-15 15-15h140c8.284 0 15 6.716 15 15s-6.716 15-15 15z" fill="#5c3629"/></g></g></svg>