<svg id="Capa_1" enable-background="new 0 0 511.93 511.93" height="512" viewBox="0 0 511.93 511.93" width="512" xmlns="http://www.w3.org/2000/svg"><g><path d="m43.445 323.32 47.593-71.391 47.446 71.376 24.961-16.611-57.48-86.473v-46.168c16.143-7.412 62.109-24.053 150-24.053 87.979 0 133.975 16.67 150 24.053v46.406l-57.48 86.221 24.961 16.641 47.593-71.391 47.446 71.376 24.961-16.611-57.48-86.473v-55.222c0-5.01-2.52-9.697-6.68-12.48-1.993-1.333-50.186-32.52-173.321-32.52s-171.328 31.187-173.32 32.52c-4.16 2.783-6.68 7.471-6.68 12.48v55.459l-57.48 86.221z" fill="#fb3"/><path d="m435.965 220.221v-55.221c0-5.01-2.52-9.697-6.68-12.48-1.992-1.333-50.185-32.52-173.32-32.52-.093 0-.176.004-.269.004-.013 9.807-.026 19.816-.038 30.004.108 0 .2-.007.308-.007 87.979 0 133.975 16.67 150 24.053v46.406l-57.48 86.221 24.961 16.641 47.593-71.391 47.446 71.376 24.961-16.611z" fill="#e68a2e"/><g id="Balance_Scale_2_"><g><path d="m420.965 390c-41.367 0-75-33.647-75-75 0-8.291 6.709-15 15-15h120c8.291 0 15 6.709 15 15 0 41.353-33.633 75-75 75z" fill="#fb3"/></g><g><path d="m90.965 390c-41.367 0-75-33.647-75-75 0-8.291 6.709-15 15-15h120c8.291 0 15 6.709 15 15 0 41.353-33.633 75-75 75z" fill="#ffe14d"/></g></g><g><path d="m255.965 391.93c-8.291 0-15-6.709-15-15v-301.93c0-8.291 6.709-15 15-15s15 6.709 15 15v301.93c0 8.291-6.709 15-15 15z" fill="#fb3"/></g><g><path d="m255.965 60c-.066 0-.123.038-.189.038-.134 93.289-.289 225.96-.306 331.793.174.005.319.099.494.099 8.291 0 15-6.709 15-15v-301.93c.001-8.291-6.708-15-14.999-15z" fill="#e68a2e"/></g><g><g><g><g><path d="m285.965 451.93h-60c-8.291 0-15-6.709-15-15v-60c0-8.291 6.709-15 15-15h60c8.291 0 15 6.709 15 15v60c0 8.291-6.709 15-15 15z" fill="#ffe14d"/></g></g></g></g><path d="m285.965 361.93h-30.487c-.011 32.151-.013 62.717 0 90h30.487c8.291 0 15-6.709 15-15v-60c0-8.291-6.709-15-15-15z" fill="#fb3"/><g><path d="m255.965 90c-24.814 0-45-20.186-45-45s20.186-45 45-45 45 20.186 45 45-20.186 45-45 45z" fill="#ffe14d"/></g><path d="m255.965 0c-.033 0-.064.009-.097.009-.038 24.598-.088 55.432-.134 89.967.079 0 .152.024.231.024 24.814 0 45-20.186 45-45s-20.186-45-45-45z" fill="#fb3"/><g><path d="m375.965 511.93h-240c-8.291 0-15-6.709-15-15 0-41.353 33.633-75 75-75h120c41.367 0 75 33.647 75 75 0 8.291-6.709 15-15 15z" fill="#fb3"/></g><path d="m315.965 421.93h-60.494c.004 34.556.026 65.392.075 90h120.419c8.291 0 15-6.709 15-15 0-41.353-33.633-75-75-75z" fill="#e68a2e"/></g></svg>