<svg width="512" height="512" viewBox="0 0 512 512" fill="none" xmlns="http://www.w3.org/2000/svg">
<rect width="512" height="512" fill="#E5E5E5"/>
<g clip-path="url(#clip0)">
<path d="M117.776 174.345C113.876 170.445 107.536 170.445 103.637 174.345C99.727 178.255 99.727 184.585 103.637 188.485C107.537 192.395 113.877 192.395 117.776 188.485C121.685 184.585 121.685 178.255 117.776 174.345Z" fill="black"/>
<path d="M502.693 420.124C499.297 414.861 495.245 410.207 490.648 406.291L443.923 365.538C443.559 364.99 443.137 364.47 442.654 363.987C441.842 363.176 440.922 362.543 439.944 362.069L411.687 337.424L280.897 223.333C286.251 217.736 289.199 210.417 289.199 202.634C289.199 194.616 286.078 187.081 280.405 181.409C277.931 178.938 275.119 176.995 272.114 175.572L284.214 163.472C287.596 164.371 291.071 164.831 294.549 164.831C304.79 164.83 315.032 160.932 322.828 153.136C330.386 145.579 334.548 135.534 334.548 124.851C334.548 114.168 330.386 104.123 322.829 96.566L237.981 11.72C230.424 4.16301 220.378 0.00100708 209.692 0.00100708C199.011 0.00100708 188.968 4.16301 181.412 11.72C170.968 22.164 167.53 36.993 171.076 50.335L50.351 171.059C47.015 170.172 43.544 169.704 39.998 169.704C29.31 169.704 19.269 173.863 11.718 181.413C-3.878 197.009 -3.878 222.386 11.718 237.983L96.565 322.831C104.364 330.629 114.607 334.528 124.85 334.528C135.094 334.528 145.337 330.629 153.136 322.831C163.58 312.386 167.018 297.558 163.472 284.216L175.547 272.14C176.998 275.17 178.967 277.966 181.413 280.411C187.079 286.077 194.612 289.198 202.628 289.198C210.403 289.198 217.719 286.255 223.324 280.907L362.63 440.961C363.014 441.561 363.462 442.132 363.986 442.656C364.165 442.835 364.355 442.998 364.544 443.16L406.055 490.854C407.087 492.072 408.19 493.27 409.335 494.415C420.736 505.812 435.795 511.997 451.605 511.997C454.392 511.997 457.205 511.805 460.022 511.415C478.851 508.809 495.124 497.545 504.666 480.507C515.119 461.834 514.341 438.127 502.693 420.124ZM195.555 25.862C199.334 22.083 204.356 20.001 209.693 20.001C215.037 20.001 220.062 22.083 223.84 25.862L308.688 110.709C312.467 114.488 314.548 119.511 314.548 124.852C314.548 130.193 312.467 135.216 308.687 138.995C300.892 146.792 288.206 146.792 280.411 138.995L195.56 54.144C195.558 54.142 195.557 54.141 195.555 54.139C187.758 46.343 187.758 33.658 195.555 25.862ZM138.994 308.689C131.196 316.487 118.505 316.488 110.707 308.689L25.86 223.842C18.061 216.043 18.061 203.355 25.86 195.555C29.632 191.782 34.654 189.704 39.998 189.704C45.341 189.704 50.36 191.781 54.131 195.551L138.993 280.413C146.791 288.208 146.791 300.894 138.994 308.689ZM181.096 238.309L153.135 266.271L68.279 181.415L181.412 68.28L266.267 153.136L238.255 181.149C238.164 181.235 238.075 181.319 237.979 181.414L181.441 237.953C181.324 238.068 181.211 238.188 181.096 238.309ZM216.802 259.17C216.782 259.19 216.763 259.209 216.743 259.229L209.701 266.271C207.812 268.159 205.301 269.199 202.627 269.199C199.954 269.199 197.442 268.159 195.554 266.27C193.663 264.38 192.622 261.866 192.622 259.191C192.622 256.573 193.621 254.11 195.434 252.252L252.235 195.451C256.128 191.665 262.422 191.712 266.269 195.555C268.159 197.445 269.2 199.959 269.2 202.634C269.2 205.307 268.162 207.814 266.268 209.703L259.267 216.704C259.219 216.751 259.171 216.799 259.124 216.847L216.802 259.17ZM237.51 266.745L266.736 237.519L390.478 345.454L345.324 390.609L237.51 266.745ZM358.485 405.731L405.584 358.631L420.691 371.808L371.646 420.854L358.485 405.731ZM487.217 470.737C480.763 482.26 469.852 489.865 457.281 491.605C444.739 493.341 432.416 489.21 423.474 480.272C422.705 479.504 421.969 478.703 421.283 477.891C421.251 477.853 421.219 477.815 421.186 477.778L384.806 435.976L435.797 384.984L477.547 421.401C477.578 421.429 477.61 421.456 477.643 421.484C480.768 424.141 483.541 427.332 485.894 430.978C493.456 442.663 493.986 458.643 487.217 470.737Z" fill="black"/>
<path d="M188.484 103.636C184.578 99.731 178.248 99.731 174.342 103.636L131.914 146.064C128.009 149.969 128.009 156.301 131.914 160.205C133.867 162.158 136.426 163.134 138.985 163.134C141.544 163.134 144.103 162.157 146.056 160.205L188.484 117.777C192.389 113.873 192.389 107.542 188.484 103.636Z" fill="black"/>
</g>
<defs>
<clipPath id="clip0">
<rect width="511.999" height="511.999" fill="white"/>
</clipPath>
</defs>
</svg>
